<?xml version="1.0" standalone="no"?><!DOCTYPE svg PUBLIC "-//W3C//DTD SVG 1.1//EN" "http://www.w3.org/Graphics/SVG/1.1/DTD/svg11.dtd"><svg t="1753243983074" class="icon" viewBox="0 0 1088 1024" version="1.1" xmlns="http://www.w3.org/2000/svg" p-id="3531" width="25.5" height="24" xmlns:xlink="http://www.w3.org/1999/xlink"><path d="M960 0a128 128 0 0 1 128 128v768a128 128 0 0 1-128 128H128a128 128 0 0 1-128-128V128a128 128 0 0 1 128-128h832z m-314.112 89.6H128a38.4 38.4 0 0 0-38.4 38.4v768a38.4 38.4 0 0 0 38.4 38.4h517.888A127.936 127.936 0 0 1 640 896V128c0-13.376 2.048-26.24 5.888-38.4zM915.2 640h-102.4a44.8 44.8 0 1 0 0 89.6h102.4a44.8 44.8 0 1 0 0-89.6z m0-192h-102.4a44.8 44.8 0 1 0 0 89.6h102.4a44.8 44.8 0 1 0 0-89.6z m0-192h-102.4a44.8 44.8 0 1 0 0 89.6h102.4a44.8 44.8 0 1 0 0-89.6z" fill="#1f2937" p-id="3532"></path></svg>